<svg xmlns="http://www.w3.org/2000/svg" width="1536" height="672" viewBox="0 0 1536 672">
<g>
<path d="M 163.00 615.55 C126.10,621.15 87.59,608.93 69.04,585.74 C57.73,571.58 52.37,556.51 51.31,535.89 C50.56,521.09 52.09,508.77 57.10,489.27 C64.97,458.68 78.41,433.03 103.87,400.00 C133.37,361.72 167.53,333.03 206.91,313.48 C238.69,297.70 262.43,292.01 291.18,293.29 C309.70,294.11 317.02,296.85 325.61,306.19 C337.45,319.05 337.92,343.73 326.91,373.00 C320.80,389.23 309.97,407.55 299.88,418.72 C295.70,423.33 294.96,423.86 291.10,424.97 C284.95,426.73 285.33,424.76 293.69,411.34 C306.36,391.00 311.71,381.88 314.71,375.47 C317.43,369.65 317.50,369.07 317.45,352.50 C317.39,335.79 317.33,335.35 314.11,326.79 C310.23,316.45 305.58,311.08 297.16,307.19 C289.09,303.46 275.07,302.95 262.56,305.93 C238.45,311.66 211.75,325.99 186.44,346.78 C176.62,354.85 154.59,376.37 150.91,381.50 C150.12,382.60 148.58,383.99 147.48,384.59 C145.50,385.68 133.18,401.72 133.06,403.38 C133.03,403.86 131.29,406.79 129.20,409.88 C114.88,431.03 96.94,472.91 88.87,504.00 C72.11,568.62 91.79,605.00 143.53,605.00 C158.91,605.00 169.07,603.22 185.50,597.64 C246.54,576.90 305.79,533.20 403.00,437.25 L 406.50 433.79 L 401.00 434.38 C397.98,434.69 385.63,436.13 373.56,437.57 C361.50,439.00 350.28,439.91 348.63,439.58 C341.43,438.14 340.16,432.74 345.02,424.27 C350.31,415.04 355.13,413.97 378.04,416.95 C387.09,418.13 400.04,419.41 406.80,419.81 L 419.10 420.53 L 437.82 401.51 C458.05,380.95 478.73,359.11 505.50,330.04 C514.85,319.88 525.89,307.96 530.02,303.54 C534.16,299.12 543.94,288.46 551.76,279.86 C569.73,260.08 591.58,239.02 599.99,233.37 C607.84,228.09 611.29,227.72 613.47,231.95 C616.14,237.10 615.16,246.55 609.93,266.34 C606.69,278.58 604.79,281.92 596.50,290.00 C584.74,301.45 575.83,315.79 561.41,346.47 C556.51,356.90 546.52,377.51 539.22,392.26 C531.91,407.01 526.13,419.40 526.37,419.79 C526.61,420.18 540.37,420.13 556.95,419.67 C587.88,418.82 590.00,419.00 590.00,422.60 C590.00,426.73 565.72,431.71 534.56,433.96 C526.35,434.55 519.54,435.14 519.44,435.27 C519.21,435.54 515.13,445.06 507.35,463.50 C487.77,509.87 477.50,546.01 479.53,561.42 C480.51,568.86 483.31,574.59 486.86,576.43 C492.25,579.21 495.15,578.45 505.61,571.50 C511.00,567.92 515.76,565.00 516.20,565.00 C516.64,565.00 517.00,566.01 517.00,567.24 C517.00,568.70 514.61,571.77 510.13,576.08 C500.63,585.21 492.95,588.42 480.50,588.46 C466.90,588.51 461.95,584.69 458.54,571.54 C455.63,560.31 457.16,531.40 461.60,513.50 C464.27,502.75 472.10,478.91 479.50,459.00 C483.49,448.27 487.06,438.49 487.44,437.25 L 488.13 435.00 L 459.82 434.98 L 431.50 434.97 L 420.98 445.73 C403.35,463.78 373.51,491.15 357.73,503.74 C353.07,507.46 345.49,513.69 340.88,517.59 C315.38,539.14 267.27,572.05 241.50,585.57 C207.11,603.61 184.34,612.30 163.00,615.55 ZM 901.69 558.50 C898.85,560.49 898.22,560.41 893.23,557.42 C888.30,554.47 884.00,547.09 884.00,541.60 C884.00,536.05 892.36,508.54 897.85,496.02 C900.61,489.71 902.71,484.38 902.50,484.17 C902.29,483.96 899.29,486.88 895.83,490.65 C882.89,504.72 872.58,515.02 868.80,517.64 C865.33,520.05 864.74,520.17 863.40,518.82 C860.71,516.14 862.86,512.42 874.38,499.77 C880.52,493.02 889.38,482.77 894.06,477.00 C903.82,464.97 924.13,436.91 929.12,428.57 C933.88,420.63 945.05,406.06 948.16,403.73 C955.90,397.95 970.26,402.93 968.68,410.85 C968.36,412.44 964.42,419.99 959.92,427.63 C943.46,455.54 934.46,471.91 925.39,490.47 C920.29,500.91 916.29,509.63 916.51,509.85 C916.73,510.06 923.57,503.33 931.70,494.87 C967.27,457.91 997.72,429.31 1014.50,417.09 C1025.05,409.41 1040.00,401.57 1046.19,400.46 C1054.61,398.95 1065.94,406.03 1064.50,411.91 C1064.15,413.33 1059.89,421.92 1055.03,431.00 C1042.55,454.31 1030.76,478.09 1031.38,478.71 C1031.66,479.00 1035.86,475.80 1040.70,471.60 C1101.45,418.90 1122.45,404.87 1138.24,406.41 C1148.12,407.37 1156.00,411.90 1156.00,416.61 C1156.00,417.85 1153.40,422.16 1150.21,426.18 C1128.39,453.78 1108.74,482.74 1102.38,496.70 C1098.38,505.46 1095.00,517.74 1095.00,523.44 C1095.01,529.13 1098.10,533.72 1103.56,536.13 C1107.59,537.91 1108.68,538.00 1113.79,536.95 C1125.62,534.50 1138.83,526.13 1153.87,511.55 C1164.88,500.88 1173.62,490.26 1181.48,478.00 C1193.25,459.62 1216.23,434.31 1234.18,419.94 C1245.76,410.67 1261.34,401.71 1273.00,397.61 C1279.79,395.22 1283.62,394.53 1292.01,394.21 C1308.79,393.55 1312.40,395.32 1319.22,407.50 C1322.02,412.52 1323.06,413.54 1325.54,413.76 C1333.11,414.44 1335.39,415.32 1339.59,419.19 C1342.02,421.43 1343.98,423.76 1343.95,424.38 C1343.93,424.99 1340.80,430.45 1337.00,436.50 C1333.20,442.55 1328.34,450.42 1326.21,454.00 C1324.07,457.58 1318.47,466.84 1313.75,474.58 C1303.64,491.21 1294.85,508.40 1292.61,515.95 C1290.63,522.62 1290.53,531.95 1292.40,536.41 C1293.45,538.92 1294.90,540.18 1298.19,541.44 C1302.30,543.01 1302.92,543.01 1307.55,541.45 C1315.43,538.80 1324.94,531.84 1338.60,518.71 C1352.65,505.22 1362.62,493.94 1377.48,474.75 C1387.23,462.15 1389.45,460.42 1391.96,463.45 C1393.64,465.48 1392.74,467.66 1385.91,478.05 C1372.14,499.03 1344.63,529.47 1328.28,541.83 C1311.23,554.72 1298.47,556.77 1285.26,548.77 C1279.23,545.11 1274.80,540.03 1271.73,533.22 C1270.03,529.47 1269.59,526.51 1269.56,518.75 C1269.54,513.39 1269.33,509.00 1269.10,509.00 C1268.87,509.00 1260.09,517.44 1249.59,527.75 C1219.85,556.96 1208.28,563.25 1192.88,558.58 C1181.39,555.09 1171.86,547.48 1167.26,538.12 C1164.83,533.17 1164.50,531.36 1164.50,522.91 L 1164.50 513.31 L 1154.79 522.29 C1133.72,541.78 1120.41,549.01 1105.64,548.99 C1093.84,548.97 1080.50,539.78 1077.47,529.57 C1071.80,510.50 1083.13,479.35 1112.40,433.51 C1114.85,429.67 1116.69,426.36 1116.48,426.15 C1115.84,425.51 1107.06,430.76 1098.69,436.78 C1075.68,453.33 1035.76,492.90 1023.82,511.00 C1019.09,518.16 1006.34,542.93 1002.84,551.74 C1000.86,556.74 997.79,557.89 991.22,556.14 C986.12,554.77 982.64,552.45 980.88,549.23 C979.81,547.26 980.28,545.03 984.35,532.73 C992.41,508.43 1006.82,474.10 1024.23,437.75 C1027.59,430.74 1030.05,424.72 1029.71,424.38 C1028.78,423.45 1022.90,427.19 1011.08,436.22 C991.25,451.38 959.71,484.98 932.91,519.50 C928.22,525.55 919.75,536.46 914.10,543.75 C908.45,551.04 902.87,557.68 901.69,558.50 ZM 674.20 558.38 C660.79,562.61 646.59,561.41 638.15,555.33 C634.60,552.78 628.25,539.93 626.88,532.50 C625.28,523.88 626.46,507.37 629.47,496.22 C633.96,479.61 643.31,459.44 652.62,446.32 C655.03,442.92 657.00,439.93 657.00,439.66 C657.00,439.40 654.76,438.88 652.03,438.50 C646.01,437.68 640.16,433.70 635.76,427.46 C634.03,425.01 632.26,423.00 631.82,423.00 C631.38,423.00 629.11,425.67 626.76,428.93 C624.42,432.19 617.10,442.38 610.50,451.57 C588.92,481.61 567.01,508.00 563.64,508.00 C561.86,508.00 560.00,505.89 560.00,503.88 C560.00,502.93 565.19,495.59 571.54,487.56 C585.23,470.25 595.73,455.88 606.66,439.50 C620.86,418.23 625.52,409.46 628.94,397.57 C634.12,379.59 641.35,367.42 648.66,364.37 C653.96,362.16 660.43,362.60 663.69,365.41 C666.06,367.44 666.50,368.59 666.48,372.66 C666.47,378.60 663.20,385.25 651.99,402.13 C647.60,408.76 644.00,415.18 644.00,416.41 C644.00,419.02 647.30,422.41 651.32,423.93 C658.35,426.60 666.78,424.08 680.60,415.21 C687.26,410.92 689.49,410.00 693.15,410.00 C696.87,410.00 698.13,410.54 700.74,413.25 C705.26,417.93 706.24,421.10 704.17,424.32 C703.25,425.75 695.86,435.69 687.74,446.42 C661.61,480.96 650.13,500.21 646.01,516.41 C640.70,537.31 646.35,548.00 662.71,548.00 C671.10,548.00 680.55,544.90 693.50,537.89 C706.83,530.68 718.32,521.58 735.06,505.00 C744.76,495.40 748.92,490.41 753.04,483.50 C768.15,458.14 788.07,432.54 804.53,417.34 C821.51,401.66 832.84,395.24 845.12,394.31 C854.80,393.57 862.74,395.72 866.39,400.05 C871.68,406.33 873.68,422.09 870.53,432.57 C869.63,435.57 869.42,437.82 869.98,438.38 C871.96,440.36 884.30,437.21 894.25,432.18 C910.93,423.76 904.52,432.54 887.00,442.10 C875.32,448.48 871.82,450.25 870.60,453.02 C870.01,454.37 869.96,455.96 869.76,458.44 C869.11,466.50 864.31,477.05 854.68,491.59 C846.32,504.22 841.15,510.88 829.31,524.31 C809.74,546.50 795.06,556.65 779.00,559.09 C758.76,562.17 748.25,556.02 742.47,537.71 C739.89,529.56 739.30,520.92 740.93,515.24 C741.44,513.46 741.61,512.00 741.31,512.00 C741.01,512.00 736.82,515.75 731.99,520.34 C709.92,541.35 693.10,552.42 674.20,558.38 ZM 956.81 178.16 L 956.50 182.32 L 926.75 182.41 L 897.00 182.50 L 897.00 178.39 L 897.00 174.28 L 902.75 173.69 C911.14,172.82 911.99,171.41 912.06,158.14 C912.34,106.37 911.75,59.40 910.79,57.58 C909.27,54.69 908.03,54.04 904.00,54.00 C897.30,53.95 896.00,53.14 896.00,49.04 L 896.00 45.32 L 934.25 45.55 C960.20,45.70 974.27,46.17 978.00,47.01 C988.44,49.36 995.38,54.08 999.29,61.50 C1000.95,64.64 1001.49,67.80 1001.81,76.17 C1002.19,86.07 1002.02,87.27 999.56,92.67 C998.09,95.88 995.23,100.23 993.20,102.34 C989.09,106.60 981.29,110.99 977.78,111.02 C972.22,111.05 972.33,112.38 978.71,122.17 C982.06,127.30 988.63,137.57 993.32,145.00 C1009.17,170.09 1011.52,172.75 1018.84,173.93 C1022.32,174.50 1022.52,174.73 1022.81,178.77 L 1023.12 183.01 L 1003.81 182.38 C991.69,181.99 984.06,181.33 983.32,180.63 C982.66,180.01 978.13,172.52 973.24,164.00 C963.17,146.44 948.81,123.62 945.72,120.25 C940.79,114.89 939.99,118.56 940.01,146.39 C940.02,159.64 940.41,166.27 941.28,168.00 C942.89,171.22 948.46,174.00 953.31,174.00 L 957.11 174.00 ZM 344.00 174.23 L 344.00 182.62 L 312.50 182.56 L 281.00 182.50 L 281.00 174.00 L 285.57 174.00 C288.08,174.00 291.04,173.51 292.15,172.92 C296.84,170.41 297.00,168.43 297.00,113.50 L 297.00 111.99 C297.00,65.70 297.00,57.39 293.41,55.32 C292.58,54.84 291.57,54.70 290.33,54.49 C284.08,53.47 282.01,53.21 281.33,52.09 C280.99,51.54 280.99,50.77 281.00,49.60 C281.00,49.43 281.00,49.26 281.00,49.08 L 281.00 45.32 L 318.25 45.57 C358.34,45.84 361.58,46.20 370.26,51.33 C376.54,55.03 380.99,59.82 383.91,66.00 C386.30,71.07 386.50,72.55 386.50,85.00 C386.50,98.19 386.42,98.65 383.27,105.11 C381.42,108.88 378.14,113.46 375.62,115.79 C366.60,124.10 358.32,126.50 338.70,126.50 L 324.89 126.50 L 325.20 147.34 L 325.50 168.18 L 328.21 170.50 C330.16,172.18 332.75,173.03 337.46,173.53 ZM 1193.50 546.63 C1198.45,549.67 1202.09,549.30 1210.50,544.91 C1229.38,535.06 1248.41,515.96 1272.18,483.00 C1281.38,470.24 1298.86,444.66 1303.85,436.64 C1305.86,433.42 1309.63,427.89 1312.24,424.36 C1316.40,418.72 1316.83,417.69 1315.74,415.93 C1314.07,413.23 1311.28,412.67 1302.19,413.21 C1282.01,414.40 1253.92,432.51 1224.73,463.12 C1199.62,489.46 1190.36,503.54 1186.85,520.76 C1183.92,535.09 1185.65,541.80 1193.50,546.63 ZM 1171.00 178.30 L 1171.00 182.59 L 1148.92 182.55 C1136.77,182.52 1126.65,182.31 1126.42,182.08 C1126.19,181.85 1126.00,179.99 1126.00,177.95 C1126.00,174.31 1126.09,174.21 1130.50,173.55 C1136.04,172.72 1140.34,169.25 1143.41,163.12 C1144.68,160.58 1148.67,150.62 1152.28,141.00 C1172.82,86.17 1178.69,70.27 1182.57,59.00 L 1186.88 46.50 L 1196.02 45.13 C1201.17,44.36 1205.51,44.14 1205.97,44.63 C1206.41,45.11 1208.77,51.58 1211.21,59.00 C1229.54,114.82 1246.33,164.02 1247.96,166.70 C1250.48,170.84 1253.94,173.05 1258.96,173.72 C1262.94,174.26 1263.00,174.32 1263.00,178.41 L 1263.00 182.55 L 1233.25 182.40 L 1203.50 182.25 L 1203.20 178.23 L 1202.90 174.21 L 1208.90 173.51 C1219.05,172.33 1219.28,170.57 1212.18,148.00 L 1207.30 132.50 L 1187.97 132.23 C1174.35,132.04 1168.44,132.29 1167.94,133.09 C1167.56,133.72 1164.87,141.31 1161.98,149.98 C1155.99,167.88 1155.94,170.24 1161.50,172.57 C1163.39,173.35 1166.30,174.00 1167.97,174.00 C1170.87,174.00 1171.00,174.18 1171.00,178.30 ZM 871.35 176.28 L 870.70 183.06 L 818.81 182.78 L 766.91 182.50 L 767.21 178.50 C767.48,174.72 767.69,174.48 771.00,174.21 C772.92,174.06 775.64,173.48 777.03,172.93 C782.56,170.76 782.47,171.59 782.81,118.00 C782.98,90.78 782.84,66.25 782.50,63.50 C781.65,56.55 780.27,55.12 773.21,53.88 C767.22,52.83 767.19,52.80 766.84,49.10 L 766.48 45.39 L 813.99 45.22 C840.12,45.12 862.68,44.78 864.13,44.47 C866.74,43.90 866.76,43.94 867.36,51.20 C867.70,55.21 868.08,62.78 868.21,68.00 L 868.44 77.50 L 863.58 77.50 C858.78,77.50 858.71,77.45 857.53,73.50 C855.64,67.18 852.35,61.48 848.97,58.63 C845.92,56.06 845.52,56.00 831.55,56.00 C823.68,56.00 815.84,56.28 814.12,56.62 L 811.00 57.25 L 811.00 106.00 L 822.98 106.00 C834.67,106.00 835.04,105.93 837.93,103.25 C839.71,101.60 841.46,98.49 842.30,95.50 C843.62,90.77 843.90,90.48 847.35,90.19 L 851.00 89.88 L 851.00 132.12 L 847.35 131.81 C843.88,131.52 843.60,131.22 841.91,126.01 C839.17,117.57 837.99,117.00 823.39,117.00 L 811.00 117.00 L 811.00 142.88 C811.00,165.74 811.19,168.92 812.66,170.13 C813.91,171.17 818.23,171.50 830.41,171.50 C844.03,171.50 847.01,171.22 849.81,169.69 C854.12,167.34 858.36,160.53 860.55,152.46 L 862.30 146.00 L 872.00 146.00 L 871.99 157.75 C871.99,164.21 871.70,172.55 871.35,176.28 ZM 607.39 175.75 L 606.83 183.00 L 553.58 183.00 C524.29,183.00 500.03,182.70 499.67,182.33 C499.30,181.97 499.00,180.04 499.00,178.04 C499.00,175.21 500.64,171.93 506.57,162.96 C513.88,151.91 523.52,136.46 557.11,82.00 L 572.84 56.50 L 552.91 56.23 C530.44,55.92 529.00,56.26 524.20,62.88 C522.69,64.97 520.19,69.80 518.66,73.60 L 515.88 80.50 L 507.00 79.80 L 507.01 67.65 C507.01,60.97 507.30,53.14 507.65,50.25 L 508.28 45.00 L 609.00 45.00 L 609.00 48.79 C609.00,51.84 607.46,54.93 601.17,64.54 C593.37,76.46 584.23,91.04 554.83,138.50 C536.14,168.66 535.00,170.55 535.00,171.42 C535.00,171.79 545.77,171.97 558.93,171.80 C581.34,171.52 583.04,171.37 585.68,169.42 C589.28,166.76 593.28,159.47 596.21,150.27 L 598.50 143.04 L 609.20 143.00 L 608.58 155.75 C608.24,162.76 607.70,171.76 607.39,175.75 ZM 740.43 180.75 L 739.96 183.00 L 686.65 183.00 C657.32,183.00 633.03,182.70 632.67,182.33 C632.30,181.97 632.00,179.99 632.00,177.94 C632.00,174.86 634.15,170.87 644.17,155.35 C650.86,144.98 660.46,129.75 665.50,121.50 C670.55,113.25 677.74,101.55 681.48,95.50 C692.83,77.17 705.00,56.93 705.00,56.39 C705.00,56.12 695.35,56.03 683.56,56.19 L 662.13 56.50 L 659.25 59.25 C656.76,61.64 652.44,69.73 649.23,78.02 C648.35,80.29 647.81,80.50 643.63,80.17 L 639.00 79.80 L 639.00 71.55 C639.00,67.02 639.29,59.19 639.65,54.15 L 640.30 45.00 L 741.00 45.00 L 741.00 49.25 C741.00,52.52 740.12,54.79 737.22,59.06 C732.35,66.22 688.28,136.49 670.59,165.29 C667.89,169.69 667.37,171.20 668.42,171.61 C669.18,171.90 680.16,171.99 692.83,171.82 C714.32,171.52 716.05,171.36 718.68,169.42 C722.41,166.66 726.51,159.18 729.16,150.25 L 731.31 143.00 L 742.18 143.00 L 741.54 160.75 C741.19,170.51 740.69,179.51 740.43,180.75 ZM 768.24 542.22 C775.74,549.23 792.13,542.65 809.35,525.70 C830.44,504.95 849.74,478.24 854.15,463.73 L 856.22 456.90 L 845.36 445.70 C838.94,439.08 833.56,434.37 832.21,434.18 C827.62,433.54 820.63,438.28 808.93,449.95 C789.59,469.25 768.52,500.47 764.59,515.64 C761.73,526.69 763.22,537.53 768.24,542.22 ZM 1105.00 174.28 L 1105.00 182.50 L 1075.42 182.50 C1059.15,182.50 1045.65,182.31 1045.42,182.08 C1045.19,181.85 1045.00,180.00 1045.00,177.96 L 1045.00 174.25 L 1050.56 173.79 C1054.52,173.46 1056.75,172.70 1058.31,171.13 L 1060.50 168.94 L 1060.50 113.63 C1060.50,68.65 1060.25,58.00 1059.15,56.68 C1058.41,55.79 1056.16,54.79 1054.15,54.46 C1048.07,53.47 1046.02,53.21 1045.34,52.10 C1044.99,51.54 1044.99,50.76 1045.00,49.56 C1045.00,49.40 1045.00,49.24 1045.00,49.08 L 1045.00 45.32 L 1072.75 45.34 C1088.01,45.35 1101.51,45.03 1102.75,44.61 C1104.86,43.91 1105.00,44.14 1105.00,48.41 L 1105.00 48.72 C1105.00,50.55 1105.00,51.65 1104.49,52.37 C1103.69,53.48 1101.66,53.72 1096.50,54.40 C1094.71,54.64 1093.34,54.67 1092.29,55.26 C1088.92,57.19 1088.96,65.09 1089.18,105.56 C1089.20,108.26 1089.21,111.11 1089.23,114.11 C1089.50,168.16 1089.53,168.98 1091.58,171.03 C1092.99,172.44 1095.50,173.30 1099.33,173.69 ZM 475.10 174.27 L 474.50 182.29 L 444.75 182.39 L 415.00 182.50 L 414.85 179.75 C414.77,178.24 414.65,176.44 414.60,175.75 C414.54,174.96 416.68,174.24 420.50,173.77 C427.99,172.85 429.62,171.06 430.51,162.74 C431.73,151.32 430.64,59.75 429.26,57.34 C428.43,55.88 426.64,54.97 423.76,54.54 C417.28,53.56 415.10,53.27 414.37,52.09 C414.00,51.50 414.00,50.67 414.00,49.40 C414.00,49.30 414.00,49.20 414.00,49.09 L 414.00 45.34 L 475.00 45.31 L 475.00 49.04 C475.00,52.94 473.63,53.95 468.30,53.99 C464.49,54.01 461.14,56.16 460.05,59.29 C459.37,61.24 459.00,80.78 459.00,115.01 C459.00,166.53 459.05,167.79 461.04,170.32 C462.67,172.39 464.27,173.04 469.09,173.59 ZM 450.18 420.26 C470.57,421.22 492.78,420.96 493.78,419.75 C494.34,419.06 500.42,407.92 507.30,395.00 C519.16,372.69 524.22,363.57 537.50,340.50 C549.19,320.20 557.82,304.00 556.94,304.00 C554.68,304.00 444.42,415.46 443.18,419.00 C443.01,419.50 446.16,420.07 450.18,420.26 ZM 325.75 116.44 C327.21,117.94 340.39,116.37 344.63,114.20 C349.28,111.82 354.39,104.88 356.16,98.56 C357.68,93.15 357.66,76.57 356.14,71.24 C354.66,66.08 349.71,60.19 345.30,58.35 C343.44,57.57 338.44,57.00 333.53,57.00 L 325.00 57.00 L 325.00 86.33 C325.00,102.47 325.34,116.01 325.75,116.44 ZM 941.02 107.03 C943.08,110.88 956.64,108.80 963.47,103.59 C974.37,95.28 976.12,71.18 966.52,61.59 C962.21,57.27 954.47,55.40 946.13,56.65 L 940.50 57.50 L 940.23 81.28 C940.06,96.54 940.34,105.77 941.02,107.03 ZM 1172.76 120.43 C1173.66,121.33 1201.82,121.09 1202.39,120.18 C1202.67,119.73 1200.21,110.84 1196.92,100.43 C1193.64,90.02 1190.48,79.76 1189.90,77.62 C1189.33,75.49 1188.50,74.14 1188.07,74.62 C1186.76,76.08 1172.15,119.82 1172.76,120.43 Z" fill="rgb(4,6,7)"/>
<path d="M 1327.38 611.55 C1311.34,613.02 1260.21,614.13 1242.00,613.40 C1221.91,612.61 1193.99,610.79 1174.00,608.97 C1112.26,603.36 1067.68,594.44 1008.77,575.89 C987.71,569.25 991.61,567.77 1015.21,573.43 C1107.46,595.60 1158.79,602.34 1236.00,602.44 C1279.79,602.50 1291.86,601.82 1325.88,597.42 C1429.05,584.06 1487.43,541.69 1491.64,477.10 C1493.25,452.30 1484.61,425.34 1467.25,401.06 C1444.89,369.78 1402.13,337.05 1354.50,314.77 C1329.67,303.15 1312.37,296.68 1285.82,289.08 C1263.59,282.72 1246.57,279.17 1213.50,274.01 C1184.32,269.46 1125.56,268.16 1093.50,271.36 C1047.02,276.00 1011.02,284.44 964.50,301.61 C940.74,310.37 929.37,314.85 915.50,320.91 C908.90,323.80 900.80,327.30 897.50,328.69 C894.20,330.08 885.65,333.82 878.50,337.01 C854.66,347.62 793.65,374.03 770.50,383.76 C758.76,388.69 741.04,395.70 720.00,403.73 L 709.50 407.74 L 704.50 405.12 C700.40,402.97 698.15,402.50 692.00,402.50 C684.59,402.50 684.37,402.58 673.64,408.86 C663.06,415.06 655.98,417.39 654.59,415.14 C654.22,414.54 656.36,410.78 659.35,406.78 C662.34,402.77 666.40,396.28 668.36,392.33 C671.74,385.58 672.21,385.08 676.72,383.70 C684.90,381.18 712.13,371.43 720.00,368.20 C724.12,366.51 733.56,362.80 740.96,359.97 C748.36,357.13 760.06,352.43 766.96,349.51 C773.86,346.59 792.55,338.71 808.50,332.00 C824.45,325.29 840.88,318.30 845.00,316.47 C889.17,296.85 947.53,276.09 987.00,265.95 C1012.76,259.34 1045.41,253.85 1073.50,251.41 C1099.84,249.13 1153.59,249.90 1179.50,252.92 C1229.32,258.75 1282.41,272.07 1327.00,289.94 C1355.81,301.49 1399.85,325.58 1421.86,341.84 C1471.62,378.60 1501.08,416.54 1510.76,456.34 C1513.44,467.37 1513.12,494.76 1510.18,505.41 C1504.08,527.53 1489.21,548.35 1466.92,565.97 C1461.54,570.22 1438.16,583.71 1430.36,587.06 C1400.09,600.08 1367.08,607.93 1327.38,611.55 ZM 163.00 615.55 C184.34,612.30 207.11,603.61 241.50,585.57 C267.27,572.05 315.38,539.14 340.88,517.59 C345.49,513.69 353.07,507.46 357.73,503.74 C373.51,491.15 403.35,463.78 420.98,445.73 L 431.50 434.97 L 459.82 434.98 L 488.13 435.00 L 431.59 435.00 L 419.29 447.57 C412.53,454.49 407.00,460.68 406.99,461.32 C406.99,461.97 404.90,464.30 402.36,466.50 C399.81,468.70 396.60,471.72 395.22,473.22 C393.85,474.72 392.26,475.66 391.70,475.32 C391.13,474.96 391.00,475.19 391.41,475.85 C391.83,476.54 390.19,478.72 387.34,481.25 C384.71,483.59 379.60,488.42 375.97,492.00 C351.50,516.14 316.53,544.40 283.00,567.13 C275.58,572.16 267.41,577.79 264.85,579.65 C262.29,581.51 258.02,583.98 255.35,585.15 C252.68,586.32 249.25,588.15 247.72,589.23 C240.81,594.08 213.61,607.81 192.50,617.09 C188.56,618.82 171.37,624.03 164.50,625.57 C156.23,627.42 129.72,628.31 122.50,626.98 C109.38,624.56 105.12,623.30 95.50,618.99 C81.70,612.82 79.45,611.38 70.93,603.27 C63.26,595.97 61.29,593.39 57.38,585.53 C49.60,569.85 46.13,546.23 49.36,531.00 C49.65,529.62 50.81,522.27 51.94,514.66 C52.11,513.51 52.28,512.37 52.47,511.24 C51.19,519.84 50.88,527.46 51.31,535.89 C52.37,556.51 57.73,571.58 69.04,585.74 C87.59,608.93 126.10,621.15 163.00,615.55 ZM 294.54 423.69 C296.04,422.86 297.31,421.56 299.88,418.72 C309.97,407.55 320.80,389.23 326.91,373.00 C337.92,343.73 337.45,319.05 325.61,306.19 C317.02,296.85 309.70,294.11 291.18,293.29 C287.96,293.14 284.81,293.09 281.71,293.12 C293.36,292.76 303.90,293.66 310.37,295.92 C313.59,297.05 316.62,297.74 317.08,297.45 C318.79,296.39 325.90,301.07 330.37,306.17 C338.79,315.80 341.51,329.87 338.61,348.85 C334.89,373.16 321.58,401.14 306.79,415.72 C303.88,418.59 301.16,420.94 300.74,420.95 C300.32,420.95 298.55,421.70 296.80,422.60 C296.02,423.01 295.26,423.37 294.54,423.69 ZM 112.84 439.57 C118.34,427.95 124.00,417.55 129.20,409.88 C131.29,406.79 133.03,403.86 133.06,403.38 C133.18,401.72 145.50,385.68 147.48,384.59 C148.58,383.99 150.12,382.60 150.91,381.50 C152.58,379.17 158.03,373.47 164.40,367.18 C156.97,374.65 150.81,381.46 149.50,384.00 C147.26,388.33 142.75,394.13 137.50,399.45 C130.34,406.70 121.37,421.67 112.84,439.57 ZM 80.82 433.26 C90.05,417.68 101.61,401.88 115.94,385.00 C122.98,376.69 130.76,368.63 139.04,360.97 C126.64,372.65 114.93,385.65 103.87,400.00 C94.74,411.85 87.15,422.74 80.82,433.26 ZM 245.19 298.27 C233.24,301.58 220.85,306.56 206.91,313.48 C202.63,315.61 198.40,317.84 194.24,320.19 C211.53,310.21 228.98,302.60 245.19,298.27 ZM 286.98 424.99 C286.13,424.46 287.38,421.66 291.79,414.42 C287.90,420.81 286.40,423.92 287.04,425.02 C287.02,425.01 287.00,425.00 286.98,424.99 ZM 55.20 497.04 C55.82,494.32 56.47,491.63 57.18,488.96 C57.16,489.06 57.13,489.16 57.10,489.27 C56.40,491.99 55.77,494.57 55.20,497.04 Z" fill="rgb(46,150,75)"/>
<path d="M 572.77 371.92 C562.24,374.17 559.97,374.41 560.05,373.25 C560.08,372.84 563.35,365.55 567.32,357.05 L 574.54 341.59 L 583.52 337.73 C588.46,335.61 595.20,332.80 598.50,331.50 C613.84,325.42 624.52,320.86 636.50,315.25 C643.65,311.90 658.72,305.03 670.00,299.97 C681.28,294.92 694.78,288.86 700.00,286.51 C705.22,284.16 714.00,280.56 719.50,278.52 C725.00,276.47 732.20,273.66 735.50,272.28 C749.74,266.29 769.55,261.58 796.50,257.76 C811.29,255.67 815.81,255.51 856.50,255.61 C888.46,255.69 903.51,256.11 911.50,257.16 L 922.50 258.60 L 907.50 259.34 C849.51,262.21 818.98,268.90 779.10,287.47 C771.62,290.95 762.80,294.93 759.50,296.32 C754.50,298.41 734.79,307.83 701.50,324.03 C684.13,332.48 657.22,344.46 644.00,349.62 C640.42,351.02 634.58,353.31 631.00,354.72 C618.32,359.72 588.09,368.65 572.77,371.92 ZM 80.82 433.26 C69.55,451.97 62.23,469.46 57.18,488.96 C56.47,491.63 55.82,494.32 55.20,497.04 C54.02,502.19 53.12,506.84 52.47,511.24 C52.28,512.37 52.11,513.51 51.94,514.66 C50.81,522.27 49.65,529.62 49.36,531.00 C46.13,546.23 49.60,569.85 57.38,585.53 C61.29,593.39 63.26,595.97 70.93,603.27 C79.45,611.38 81.70,612.82 95.50,618.99 C105.12,623.30 109.38,624.56 122.50,626.98 C129.72,628.31 156.23,627.42 164.50,625.57 C171.37,624.03 188.56,618.82 192.50,617.09 C213.61,607.81 240.81,594.08 247.72,589.23 C249.25,588.15 252.68,586.32 255.35,585.15 C258.02,583.98 262.29,581.51 264.85,579.65 C267.41,577.79 275.58,572.16 283.00,567.13 C316.53,544.40 351.50,516.14 375.97,492.00 C379.60,488.42 384.71,483.59 387.34,481.25 C390.19,478.72 391.83,476.54 391.41,475.85 C391.00,475.19 391.13,474.96 391.70,475.32 C392.26,475.66 393.85,474.72 395.22,473.22 C396.60,471.72 399.81,468.70 402.36,466.50 C404.90,464.30 406.99,461.97 406.99,461.32 C407.00,460.68 412.53,454.49 419.29,447.57 L 431.59 435.00 L 436.44 435.00 L 430.00 442.75 C419.88,454.94 367.24,507.06 348.68,523.26 C315.27,552.43 282.66,577.09 254.50,594.46 C248.45,598.19 241.14,602.77 238.25,604.63 C229.35,610.38 209.18,620.59 194.50,626.80 C179.35,633.20 170.25,636.21 157.00,639.21 C150.80,640.62 143.62,641.23 130.50,641.48 C120.60,641.66 111.15,641.62 109.50,641.38 C94.21,639.18 76.51,632.68 66.68,625.66 C43.40,609.06 31.83,585.00 31.87,553.32 C31.92,511.51 46.46,471.47 77.79,426.89 C96.07,400.87 126.27,368.29 146.17,353.11 C152.73,348.11 158.86,343.58 164.67,339.44 C155.82,346.04 147.28,353.21 139.04,360.97 C130.76,368.63 122.98,376.69 115.94,385.00 C101.61,401.88 90.05,417.68 80.82,433.26 ZM 455.98 369.52 C453.56,371.98 450.89,373.96 450.04,373.91 C444.17,373.57 422.24,369.64 411.50,367.00 C387.80,361.17 360.08,350.83 363.08,348.93 C365.52,347.38 370.80,347.90 384.37,351.01 C391.59,352.67 401.36,354.91 406.09,355.99 C416.23,358.31 435.49,361.44 449.50,363.04 C455.00,363.67 459.70,364.38 459.94,364.61 C460.18,364.85 458.40,367.06 455.98,369.52 ZM 141.84 394.76 C135.40,403.72 123.03,422.75 119.43,429.50 C117.38,433.35 115.06,437.02 114.29,437.66 C112.95,438.75 104.60,458.05 98.91,472.68 C103.11,461.38 107.90,449.98 112.84,439.57 L 112.84 439.57 C121.38,421.67 130.34,406.70 137.50,399.45 C139.02,397.91 140.48,396.33 141.84,394.76 ZM 319.16 297.61 C318.23,297.27 317.50,297.19 317.08,297.45 C316.62,297.74 313.59,297.05 310.37,295.92 C306.73,294.65 301.79,293.81 296.09,293.38 C300.28,293.59 304.52,293.95 308.81,294.45 C312.34,294.85 315.85,295.96 319.16,297.61 ZM 1003.70 574.22 C996.69,571.98 991.95,570.34 991.55,569.94 C989.89,568.29 996.02,568.92 1007.00,571.52 C1007.86,571.73 1008.72,571.93 1009.57,572.13 C992.94,568.46 989.99,569.53 1003.70,574.22 ZM 1020.60 574.72 C1086.83,590.19 1117.50,595.39 1169.01,600.12 C1123.94,596.71 1081.08,589.11 1020.60,574.72 ZM 1435.31 563.48 C1463.47,546.15 1481.83,523.18 1488.52,496.60 C1491.37,485.26 1492.35,473.97 1491.45,462.75 C1491.88,467.59 1491.94,472.39 1491.64,477.10 C1489.28,513.25 1469.95,542.44 1435.31,563.48 ZM 1478.56 419.60 C1471.54,406.17 1461.74,392.91 1449.17,379.85 C1448.25,378.90 1447.32,377.94 1446.36,376.99 C1454.48,384.97 1461.53,393.06 1467.25,401.06 C1471.56,407.10 1475.34,413.30 1478.56,419.60 ZM 95.07 483.07 C96.03,480.25 97.37,476.64 98.91,472.68 C94.88,483.53 91.39,494.29 88.87,504.00 C87.42,509.61 86.24,515.00 85.33,520.18 C80.26,549.59 83.81,571.96 95.60,586.32 C83.77,571.96 80.17,549.59 85.33,520.18 C87.29,508.84 90.52,496.45 95.07,483.07 ZM 334.30 367.00 C328.67,385.52 318.87,403.81 306.79,415.72 C317.98,404.69 328.32,385.98 334.30,367.00 ZM 1094.69 598.14 C1077.25,594.87 1061.00,591.12 1046.00,586.90 C1043.38,586.17 1040.67,585.39 1037.92,584.60 C1057.50,590.10 1075.95,594.52 1094.69,598.14 ZM 1174.73 609.04 C1194.67,610.83 1222.16,612.62 1242.00,613.40 C1218.43,612.47 1195.99,611.01 1174.73,609.04 ZM 141.84 394.76 C143.16,392.93 144.23,391.52 144.92,390.72 C146.13,389.33 147.65,387.18 148.73,385.39 C147.10,388.19 144.69,391.46 141.84,394.76 ZM 337.83 320.17 C336.67,316.11 334.99,312.48 332.77,309.26 C334.58,311.80 336.02,314.54 337.00,317.41 C337.30,318.30 337.58,319.22 337.83,320.17 ZM 1360.10 591.58 C1351.17,593.51 1341.82,595.18 1332.05,596.58 C1342.00,595.11 1351.33,593.45 1360.10,591.58 ZM 228.84 303.58 C233.93,301.60 239.13,299.90 244.42,298.48 C239.33,299.87 234.12,301.58 228.84,303.58 ZM 148.73 385.39 C149.01,384.92 149.27,384.45 149.50,384.00 C150.81,381.46 156.97,374.65 164.40,367.18 C156.97,374.66 150.81,381.47 149.51,384.00 C149.30,384.42 149.03,384.89 148.73,385.39 Z" fill="rgb(150,91,95)"/>
<path d="M 0.00 336.00 L 0.00 0.00 L 768.00 0.00 L 1536.00 0.00 L 1536.00 336.00 L 1536.00 672.00 L 768.00 672.00 L 0.00 672.00 L 0.00 336.00 ZM 157.00 639.21 C170.25,636.21 179.35,633.20 194.50,626.80 C209.18,620.59 229.35,610.38 238.25,604.63 C241.14,602.77 248.45,598.19 254.50,594.46 C282.66,577.09 315.27,552.43 348.68,523.26 C367.24,507.06 419.88,454.94 430.00,442.75 L 436.44 435.00 L 462.29 435.00 L 488.13 435.00 L 487.44 437.25 C487.06,438.49 483.49,448.27 479.50,459.00 C472.10,478.91 464.27,502.75 461.60,513.50 C457.16,531.40 455.63,560.31 458.54,571.54 C461.95,584.69 466.90,588.51 480.50,588.46 C492.95,588.42 500.63,585.21 510.13,576.08 C514.61,571.77 517.00,568.70 517.00,567.24 C517.00,566.01 516.64,565.00 516.20,565.00 C515.76,565.00 511.00,567.92 505.61,571.50 C495.15,578.45 492.25,579.21 486.86,576.43 C483.31,574.59 480.51,568.86 479.53,561.42 C477.50,546.01 487.77,509.87 507.35,463.50 C515.13,445.06 519.21,435.54 519.44,435.27 C519.54,435.14 526.35,434.55 534.56,433.96 C565.72,431.71 590.00,426.73 590.00,422.60 C590.00,419.00 587.88,418.82 556.95,419.67 C540.37,420.13 526.61,420.18 526.37,419.79 C526.13,419.40 531.91,407.01 539.22,392.26 C546.52,377.51 556.51,356.90 561.41,346.47 C575.83,315.79 584.74,301.45 596.50,290.00 C604.79,281.92 606.69,278.58 609.93,266.34 C615.16,246.55 616.14,237.10 613.47,231.95 C611.29,227.72 607.84,228.09 599.99,233.37 C591.58,239.02 569.73,260.08 551.76,279.86 C543.94,288.46 534.16,299.12 530.02,303.54 C525.89,307.96 514.85,319.88 505.50,330.04 C478.73,359.11 458.05,380.95 437.82,401.51 L 419.10 420.53 L 406.80 419.81 C400.04,419.41 387.09,418.13 378.04,416.95 C355.13,413.97 350.31,415.04 345.02,424.27 C340.16,432.74 341.43,438.14 348.63,439.58 C350.28,439.91 361.50,439.00 373.56,437.57 C385.63,436.13 397.98,434.69 401.00,434.38 L 406.50 433.79 L 403.00 437.25 C305.79,533.20 246.54,576.90 185.50,597.64 C169.07,603.22 158.91,605.00 143.53,605.00 C86.28,605.00 68.69,560.74 95.07,483.07 C99.56,469.84 112.59,439.04 114.29,437.66 C115.06,437.02 117.38,433.35 119.43,429.50 C123.77,421.37 140.82,395.42 144.92,390.72 C146.46,388.95 148.53,385.93 149.51,384.00 C152.08,379.00 173.59,357.30 186.44,346.77 C211.81,325.96 238.47,311.66 262.56,305.93 C275.07,302.95 289.09,303.46 297.16,307.19 C305.58,311.08 310.23,316.45 314.11,326.79 C317.33,335.35 317.39,335.79 317.45,352.50 C317.50,369.07 317.43,369.65 314.71,375.47 C311.71,381.88 306.36,391.00 293.69,411.34 C287.74,420.88 286.02,424.39 286.98,424.99 C288.45,425.90 292.18,424.99 296.80,422.60 C298.55,421.70 300.32,420.95 300.74,420.95 C301.16,420.94 303.88,418.59 306.79,415.72 C330.79,392.05 345.79,343.23 337.00,317.41 C332.98,305.61 321.00,295.85 308.81,294.45 C279.65,291.08 252.97,294.15 228.61,303.67 C202.29,313.95 179.98,327.33 146.17,353.11 C126.27,368.29 96.07,400.87 77.79,426.89 C46.46,471.47 31.92,511.51 31.87,553.32 C31.83,585.00 43.40,609.06 66.68,625.66 C76.51,632.68 94.21,639.18 109.50,641.38 C111.15,641.62 120.60,641.66 130.50,641.48 C143.62,641.23 150.80,640.62 157.00,639.21 ZM 1327.38 611.55 C1367.08,607.93 1400.09,600.08 1430.36,587.06 C1438.16,583.71 1461.54,570.22 1466.92,565.97 C1489.21,548.35 1504.08,527.53 1510.18,505.41 C1513.12,494.76 1513.44,467.37 1510.76,456.34 C1501.08,416.54 1471.62,378.60 1421.86,341.84 C1399.85,325.58 1355.81,301.49 1327.00,289.94 C1282.41,272.07 1229.32,258.75 1179.50,252.92 C1153.59,249.90 1099.84,249.13 1073.50,251.41 C1045.41,253.85 1012.76,259.34 987.00,265.95 C947.53,276.09 889.17,296.85 845.00,316.47 C840.88,318.30 824.45,325.29 808.50,332.00 C792.55,338.71 773.86,346.59 766.96,349.51 C760.06,352.43 748.36,357.13 740.96,359.97 C733.56,362.80 724.12,366.51 720.00,368.20 C712.13,371.43 684.90,381.18 676.72,383.70 C672.21,385.08 671.74,385.58 668.36,392.33 C666.40,396.28 662.34,402.77 659.35,406.78 C656.36,410.78 654.22,414.54 654.59,415.14 C655.98,417.39 663.06,415.06 673.64,408.86 C684.37,402.58 684.59,402.50 692.00,402.50 C698.15,402.50 700.40,402.97 704.50,405.12 L 709.50 407.74 L 720.00 403.73 C741.04,395.70 758.76,388.69 770.50,383.76 C793.65,374.03 854.66,347.62 878.50,337.01 C885.65,333.82 894.20,330.08 897.50,328.69 C900.80,327.30 908.90,323.80 915.50,320.91 C929.37,314.85 940.74,310.37 964.50,301.61 C1011.02,284.44 1047.02,276.00 1093.50,271.36 C1125.56,268.16 1184.32,269.46 1213.50,274.01 C1246.57,279.17 1263.59,282.72 1285.82,289.08 C1312.37,296.68 1329.67,303.15 1354.50,314.77 C1391.24,331.96 1426.23,356.02 1449.17,379.85 C1485.34,417.44 1498.57,456.67 1488.52,496.60 C1480.60,528.09 1456.28,554.52 1418.69,572.50 C1387.77,587.29 1348.33,596.22 1292.00,601.21 C1269.93,603.17 1199.55,602.84 1175.00,600.66 C1116.28,595.47 1085.58,590.14 1007.00,571.52 C996.02,568.92 989.89,568.29 991.55,569.94 C992.58,570.97 1022.78,580.37 1046.00,586.90 C1097.38,601.36 1163.42,610.29 1242.00,613.40 C1260.21,614.13 1311.34,613.02 1327.38,611.55 ZM 674.20 558.38 C693.10,552.42 709.92,541.35 731.99,520.34 C736.82,515.75 741.01,512.00 741.31,512.00 C741.61,512.00 741.44,513.46 740.93,515.24 C739.30,520.92 739.89,529.56 742.47,537.71 C748.25,556.02 758.76,562.17 779.00,559.09 C795.06,556.65 809.74,546.50 829.31,524.31 C841.15,510.88 846.32,504.22 854.68,491.59 C864.31,477.05 869.11,466.50 869.76,458.44 C870.36,450.88 869.62,451.59 887.00,442.10 C904.52,432.54 910.93,423.76 894.25,432.18 C884.30,437.21 871.96,440.36 869.98,438.38 C869.42,437.82 869.63,435.57 870.53,432.57 C873.68,422.09 871.68,406.33 866.39,400.05 C862.74,395.72 854.80,393.57 845.12,394.31 C832.84,395.24 821.51,401.66 804.53,417.34 C788.07,432.54 768.15,458.14 753.04,483.50 C748.92,490.41 744.76,495.40 735.06,505.00 C718.32,521.58 706.83,530.68 693.50,537.89 C680.55,544.90 671.10,548.00 662.71,548.00 C646.35,548.00 640.70,537.31 646.01,516.41 C650.13,500.21 661.61,480.96 687.74,446.42 C695.86,435.69 703.25,425.75 704.17,424.32 C706.24,421.10 705.26,417.93 700.74,413.25 C698.13,410.54 696.87,410.00 693.15,410.00 C689.49,410.00 687.26,410.92 680.60,415.21 C666.78,424.08 658.35,426.60 651.32,423.93 C647.30,422.41 644.00,419.02 644.00,416.41 C644.00,415.18 647.60,408.76 651.99,402.13 C663.20,385.25 666.47,378.60 666.48,372.66 C666.50,368.59 666.06,367.44 663.69,365.41 C660.43,362.60 653.96,362.16 648.66,364.37 C641.35,367.42 634.12,379.59 628.94,397.57 C625.52,409.46 620.86,418.23 606.66,439.50 C595.73,455.88 585.23,470.25 571.54,487.56 C565.19,495.59 560.00,502.93 560.00,503.88 C560.00,505.89 561.86,508.00 563.64,508.00 C567.01,508.00 588.92,481.61 610.50,451.57 C617.10,442.38 624.42,432.19 626.76,428.93 C629.11,425.67 631.38,423.00 631.82,423.00 C632.26,423.00 634.03,425.01 635.76,427.46 C640.16,433.70 646.01,437.68 652.03,438.50 C654.76,438.88 657.00,439.40 657.00,439.66 C657.00,439.93 655.03,442.92 652.62,446.32 C643.31,459.44 633.96,479.61 629.47,496.22 C626.46,507.37 625.28,523.88 626.88,532.50 C628.25,539.93 634.60,552.78 638.15,555.33 C646.59,561.41 660.79,562.61 674.20,558.38 ZM 901.69 558.50 C902.87,557.68 908.45,551.04 914.10,543.75 C919.75,536.46 928.22,525.55 932.91,519.50 C959.71,484.98 991.25,451.38 1011.08,436.22 C1022.90,427.19 1028.78,423.45 1029.71,424.38 C1030.05,424.72 1027.59,430.74 1024.23,437.75 C1006.82,474.10 992.41,508.43 984.35,532.73 C980.28,545.03 979.81,547.26 980.88,549.23 C982.64,552.45 986.12,554.77 991.22,556.14 C997.79,557.89 1000.86,556.74 1002.84,551.74 C1006.34,542.93 1019.09,518.16 1023.82,511.00 C1035.76,492.90 1075.68,453.33 1098.69,436.78 C1107.06,430.76 1115.84,425.51 1116.48,426.15 C1116.69,426.36 1114.85,429.67 1112.40,433.51 C1083.13,479.35 1071.80,510.50 1077.47,529.57 C1080.50,539.78 1093.84,548.97 1105.64,548.99 C1120.41,549.01 1133.72,541.78 1154.79,522.29 L 1164.50 513.31 L 1164.50 522.91 C1164.50,531.36 1164.83,533.17 1167.26,538.12 C1171.86,547.48 1181.39,555.09 1192.88,558.58 C1208.28,563.25 1219.85,556.96 1249.59,527.75 C1260.09,517.44 1268.87,509.00 1269.10,509.00 C1269.33,509.00 1269.54,513.39 1269.56,518.75 C1269.59,526.51 1270.03,529.47 1271.73,533.22 C1274.80,540.03 1279.23,545.11 1285.26,548.77 C1298.47,556.77 1311.23,554.72 1328.28,541.83 C1344.63,529.47 1372.14,499.03 1385.91,478.05 C1392.74,467.66 1393.64,465.48 1391.96,463.45 C1389.45,460.42 1387.23,462.15 1377.48,474.75 C1362.62,493.94 1352.65,505.22 1338.60,518.71 C1324.94,531.84 1315.43,538.80 1307.55,541.45 C1302.92,543.01 1302.30,543.01 1298.19,541.44 C1294.90,540.18 1293.45,538.92 1292.40,536.41 C1290.53,531.95 1290.63,522.62 1292.61,515.95 C1294.85,508.40 1303.64,491.21 1313.75,474.58 C1318.47,466.84 1324.07,457.58 1326.21,454.00 C1328.34,450.42 1333.20,442.55 1337.00,436.50 C1340.80,430.45 1343.93,424.99 1343.95,424.38 C1343.98,423.76 1342.02,421.43 1339.59,419.19 C1335.39,415.32 1333.11,414.44 1325.54,413.76 C1323.06,413.54 1322.02,412.52 1319.22,407.50 C1312.40,395.32 1308.79,393.55 1292.01,394.21 C1283.62,394.53 1279.79,395.22 1273.00,397.61 C1261.34,401.71 1245.76,410.67 1234.18,419.94 C1216.23,434.31 1193.25,459.62 1181.48,478.00 C1173.62,490.26 1164.88,500.88 1153.87,511.55 C1138.83,526.13 1125.62,534.50 1113.79,536.95 C1108.68,538.00 1107.59,537.91 1103.56,536.13 C1098.10,533.72 1095.01,529.13 1095.00,523.44 C1095.00,517.74 1098.38,505.46 1102.38,496.70 C1108.74,482.74 1128.39,453.78 1150.21,426.18 C1153.40,422.16 1156.00,417.85 1156.00,416.61 C1156.00,411.90 1148.12,407.37 1138.24,406.41 C1122.45,404.87 1101.45,418.90 1040.70,471.60 C1035.86,475.80 1031.66,479.00 1031.38,478.71 C1030.76,478.09 1042.55,454.31 1055.03,431.00 C1059.89,421.92 1064.15,413.33 1064.50,411.91 C1065.94,406.03 1054.61,398.95 1046.19,400.46 C1040.00,401.57 1025.05,409.41 1014.50,417.09 C997.72,429.31 967.27,457.91 931.70,494.87 C923.57,503.33 916.73,510.06 916.51,509.85 C916.29,509.63 920.29,500.91 925.39,490.47 C934.46,471.91 943.46,455.54 959.92,427.63 C964.42,419.99 968.36,412.44 968.68,410.85 C970.26,402.93 955.90,397.95 948.16,403.73 C945.05,406.06 933.88,420.63 929.12,428.57 C924.13,436.91 903.82,464.97 894.06,477.00 C889.38,482.77 880.52,493.02 874.38,499.77 C862.86,512.42 860.71,516.14 863.40,518.82 C864.74,520.17 865.33,520.05 868.80,517.64 C872.58,515.02 882.89,504.72 895.83,490.65 C899.29,486.88 902.29,483.96 902.50,484.17 C902.71,484.38 900.61,489.71 897.85,496.02 C892.36,508.54 884.00,536.05 884.00,541.60 C884.00,547.09 888.30,554.47 893.23,557.42 C898.22,560.41 898.85,560.49 901.69,558.50 ZM 455.98 369.52 C458.40,367.06 460.18,364.85 459.94,364.61 C459.70,364.38 455.00,363.67 449.50,363.04 C435.49,361.44 416.23,358.31 406.09,355.99 C401.36,354.91 391.59,352.67 384.37,351.01 C370.80,347.90 365.52,347.38 363.08,348.93 C360.08,350.83 387.80,361.17 411.50,367.00 C422.24,369.64 444.17,373.57 450.04,373.91 C450.89,373.96 453.56,371.98 455.98,369.52 ZM 572.77 371.92 C588.09,368.65 618.32,359.72 631.00,354.72 C634.58,353.31 640.42,351.02 644.00,349.62 C657.22,344.46 684.13,332.48 701.50,324.03 C734.79,307.83 754.50,298.41 759.50,296.32 C762.80,294.93 771.62,290.95 779.10,287.47 C818.98,268.90 849.51,262.21 907.50,259.34 L 922.50 258.60 L 911.50 257.16 C903.51,256.11 888.46,255.69 856.50,255.61 C815.81,255.51 811.29,255.67 796.50,257.76 C769.55,261.58 749.74,266.29 735.50,272.28 C732.20,273.66 725.00,276.47 719.50,278.52 C714.00,280.56 705.22,284.16 700.00,286.51 C694.78,288.86 681.28,294.92 670.00,299.97 C658.72,305.03 643.65,311.90 636.50,315.25 C624.52,320.86 613.84,325.42 598.50,331.50 C595.20,332.80 588.46,335.61 583.52,337.73 L 574.54 341.59 L 567.32 357.05 C563.35,365.55 560.08,372.84 560.05,373.25 C559.97,374.41 562.24,374.17 572.77,371.92 ZM 344.00 178.43 L 344.00 174.23 L 337.46 173.53 C332.75,173.03 330.16,172.18 328.21,170.50 L 325.50 168.18 L 325.20 147.34 L 324.89 126.50 L 338.70 126.50 C358.32,126.50 366.60,124.10 375.62,115.79 C378.14,113.46 381.42,108.88 383.27,105.11 C386.42,98.65 386.50,98.19 386.50,85.00 C386.50,72.55 386.30,71.07 383.91,66.00 C380.99,59.82 376.54,55.03 370.26,51.33 C361.58,46.20 358.34,45.84 318.25,45.57 L 281.00 45.32 L 281.00 49.08 C281.00,53.15 280.55,52.89 290.33,54.49 C297.06,55.60 297.00,55.08 297.00,113.50 C297.00,168.43 296.84,170.41 292.15,172.92 C291.04,173.51 288.08,174.00 285.57,174.00 L 281.00 174.00 L 281.00 178.25 L 281.00 182.50 L 312.50 182.56 L 344.00 182.62 L 344.00 178.43 ZM 474.80 178.28 L 475.10 174.27 L 469.09 173.59 C464.27,173.04 462.67,172.39 461.04,170.32 C459.05,167.79 459.00,166.53 459.00,115.01 C459.00,80.78 459.37,61.24 460.05,59.29 C461.14,56.16 464.49,54.01 468.30,53.99 C473.63,53.95 475.00,52.94 475.00,49.04 L 475.00 45.31 L 444.50 45.33 L 414.00 45.34 L 414.00 49.09 C414.00,53.17 413.73,53.02 423.76,54.54 C426.64,54.97 428.43,55.88 429.26,57.34 C430.64,59.75 431.73,151.32 430.51,162.74 C429.62,171.06 427.99,172.85 420.50,173.77 C416.68,174.24 414.54,174.96 414.60,175.75 C414.65,176.44 414.77,178.24 414.85,179.75 L 415.00 182.50 L 444.75 182.39 L 474.50 182.29 L 474.80 178.28 ZM 607.39 175.75 C607.70,171.76 608.24,162.76 608.58,155.75 L 609.20 143.00 L 603.85 143.02 L 598.50 143.04 L 596.21 150.27 C593.28,159.47 589.28,166.76 585.68,169.42 C583.04,171.37 581.34,171.52 558.93,171.80 C545.77,171.97 535.00,171.79 535.00,171.42 C535.00,170.55 536.14,168.66 554.83,138.50 C584.23,91.04 593.37,76.46 601.17,64.54 C607.46,54.93 609.00,51.84 609.00,48.79 L 609.00 45.00 L 558.64 45.00 L 508.28 45.00 L 507.65 50.25 C507.30,53.14 507.01,60.97 507.01,67.65 L 507.00 79.80 L 511.44 80.15 L 515.88 80.50 L 518.66 73.60 C520.19,69.80 522.69,64.97 524.20,62.88 C529.00,56.26 530.44,55.92 552.91,56.23 L 572.84 56.50 L 557.11 82.00 C523.52,136.46 513.88,151.91 506.57,162.96 C500.64,171.93 499.00,175.21 499.00,178.04 C499.00,180.04 499.30,181.97 499.67,182.33 C500.03,182.70 524.29,183.00 553.58,183.00 L 606.83 183.00 L 607.39 175.75 ZM 740.43 180.75 C740.69,179.51 741.19,170.51 741.54,160.75 L 742.18 143.00 L 736.75 143.00 L 731.31 143.00 L 729.16 150.25 C726.51,159.18 722.41,166.66 718.68,169.42 C716.05,171.36 714.32,171.52 692.83,171.82 C680.16,171.99 669.18,171.90 668.42,171.61 C667.37,171.20 667.89,169.69 670.59,165.29 C688.28,136.49 732.35,66.22 737.22,59.06 C740.12,54.79 741.00,52.52 741.00,49.25 L 741.00 45.00 L 690.65 45.00 L 640.30 45.00 L 639.65 54.15 C639.29,59.19 639.00,67.02 639.00,71.55 L 639.00 79.80 L 643.63 80.17 C647.81,80.50 648.35,80.29 649.23,78.02 C652.44,69.73 656.76,61.64 659.25,59.25 L 662.13 56.50 L 683.56 56.19 C695.35,56.03 705.00,56.12 705.00,56.39 C705.00,56.93 692.83,77.17 681.48,95.50 C677.74,101.55 670.55,113.25 665.50,121.50 C660.46,129.75 650.86,144.98 644.17,155.35 C634.15,170.87 632.00,174.86 632.00,177.94 C632.00,179.99 632.30,181.97 632.67,182.33 C633.03,182.70 657.32,183.00 686.65,183.00 L 739.96 183.00 L 740.43 180.75 ZM 871.35 176.28 C871.70,172.55 871.99,164.21 871.99,157.75 L 872.00 146.00 L 867.15 146.00 L 862.30 146.00 L 860.55 152.46 C858.36,160.53 854.12,167.34 849.81,169.69 C847.01,171.22 844.03,171.50 830.41,171.50 C818.23,171.50 813.91,171.17 812.66,170.13 C811.19,168.92 811.00,165.74 811.00,142.88 L 811.00 117.00 L 823.39 117.00 C837.99,117.00 839.17,117.57 841.91,126.01 C843.60,131.22 843.88,131.52 847.35,131.81 L 851.00 132.12 L 851.00 111.00 L 851.00 89.88 L 847.35 90.19 C843.90,90.48 843.62,90.77 842.30,95.50 C841.46,98.49 839.71,101.60 837.93,103.25 C835.04,105.93 834.67,106.00 822.98,106.00 L 811.00 106.00 L 811.00 81.62 L 811.00 57.25 L 814.12 56.62 C815.84,56.28 823.68,56.00 831.55,56.00 C845.52,56.00 845.92,56.06 848.97,58.63 C852.35,61.48 855.64,67.18 857.53,73.50 C858.71,77.45 858.78,77.50 863.58,77.50 L 868.44 77.50 L 868.21 68.00 C868.08,62.78 867.70,55.21 867.36,51.20 C866.76,43.94 866.74,43.90 864.13,44.47 C862.68,44.78 840.12,45.12 813.99,45.22 L 766.48 45.39 L 766.84 49.10 C767.19,52.80 767.22,52.83 773.21,53.88 C780.27,55.12 781.65,56.55 782.50,63.50 C782.84,66.25 782.98,90.78 782.81,118.00 C782.47,171.59 782.56,170.76 777.03,172.93 C775.64,173.48 772.92,174.06 771.00,174.21 C767.69,174.48 767.48,174.72 767.21,178.50 L 766.91 182.50 L 818.81 182.78 L 870.70 183.06 L 871.35 176.28 ZM 956.81 178.16 L 957.11 174.00 L 953.31 174.00 C948.46,174.00 942.89,171.22 941.28,168.00 C940.41,166.27 940.02,159.64 940.01,146.39 C939.99,118.56 940.79,114.89 945.72,120.25 C948.81,123.62 963.17,146.44 973.24,164.00 C978.13,172.52 982.66,180.01 983.32,180.63 C984.06,181.33 991.69,181.99 1003.81,182.38 L 1023.12 183.01 L 1022.81 178.77 C1022.52,174.73 1022.32,174.50 1018.84,173.93 C1011.52,172.75 1009.17,170.09 993.32,145.00 C988.63,137.57 982.06,127.30 978.71,122.17 C972.33,112.38 972.22,111.05 977.78,111.02 C981.29,110.99 989.09,106.60 993.20,102.34 C995.23,100.23 998.09,95.88 999.56,92.67 C1002.02,87.27 1002.19,86.07 1001.81,76.17 C1001.49,67.80 1000.95,64.64 999.29,61.50 C995.38,54.08 988.44,49.36 978.00,47.01 C974.27,46.17 960.20,45.70 934.25,45.55 L 896.00 45.32 L 896.00 49.04 C896.00,53.14 897.30,53.95 904.00,54.00 C908.03,54.04 909.27,54.69 910.79,57.58 C911.75,59.40 912.34,106.37 912.06,158.14 C911.99,171.41 911.14,172.82 902.75,173.69 L 897.00 174.28 L 897.00 178.39 L 897.00 182.50 L 926.75 182.41 L 956.50 182.32 L 956.81 178.16 ZM 1105.00 178.39 L 1105.00 174.28 L 1099.33 173.69 C1095.50,173.30 1092.99,172.44 1091.58,171.03 C1089.53,168.98 1089.50,168.16 1089.23,114.11 C1088.92,52.27 1088.53,55.47 1096.50,54.40 C1105.19,53.24 1105.00,53.38 1105.00,48.41 C1105.00,44.14 1104.86,43.91 1102.75,44.61 C1101.51,45.03 1088.01,45.35 1072.75,45.34 L 1045.00 45.32 L 1045.00 49.08 C1045.00,53.14 1044.59,52.90 1054.15,54.46 C1056.16,54.79 1058.41,55.79 1059.15,56.68 C1060.25,58.00 1060.50,68.65 1060.50,113.63 L 1060.50 168.94 L 1058.31 171.13 C1056.75,172.70 1054.52,173.46 1050.56,173.79 L 1045.00 174.25 L 1045.00 177.96 C1045.00,180.00 1045.19,181.85 1045.42,182.08 C1045.65,182.31 1059.15,182.50 1075.42,182.50 L 1105.00 182.50 L 1105.00 178.39 ZM 1171.00 178.30 C1171.00,174.18 1170.87,174.00 1167.97,174.00 C1166.30,174.00 1163.39,173.35 1161.50,172.57 C1155.94,170.24 1155.99,167.88 1161.98,149.98 C1164.87,141.31 1167.56,133.72 1167.94,133.09 C1168.44,132.29 1174.35,132.04 1187.97,132.23 L 1207.30 132.50 L 1212.18 148.00 C1219.28,170.57 1219.05,172.33 1208.90,173.51 L 1202.90 174.21 L 1203.20 178.23 L 1203.50 182.25 L 1233.25 182.40 L 1263.00 182.55 L 1263.00 178.41 C1263.00,174.32 1262.94,174.26 1258.96,173.72 C1253.94,173.05 1250.48,170.84 1247.96,166.70 C1246.33,164.02 1229.54,114.82 1211.21,59.00 C1208.77,51.58 1206.41,45.11 1205.97,44.63 C1205.51,44.14 1201.17,44.36 1196.02,45.13 L 1186.88 46.50 L 1182.57 59.00 C1178.69,70.27 1172.82,86.17 1152.28,141.00 C1148.67,150.62 1144.68,160.58 1143.41,163.12 C1140.34,169.25 1136.04,172.72 1130.50,173.55 C1126.09,174.21 1126.00,174.31 1126.00,177.95 C1126.00,179.99 1126.19,181.85 1126.42,182.08 C1126.65,182.31 1136.77,182.52 1148.92,182.55 L 1171.00 182.59 L 1171.00 178.30 ZM 450.18 420.26 C446.16,420.07 443.01,419.50 443.18,419.00 C444.42,415.46 554.68,304.00 556.94,304.00 C557.82,304.00 549.19,320.20 537.50,340.50 C524.22,363.57 519.16,372.69 507.30,395.00 C500.42,407.92 494.34,419.06 493.78,419.75 C492.78,420.96 470.57,421.22 450.18,420.26 ZM 768.24 542.22 C763.22,537.53 761.73,526.69 764.59,515.64 C768.52,500.47 789.59,469.25 808.93,449.95 C820.63,438.28 827.62,433.54 832.21,434.18 C833.56,434.37 838.94,439.08 845.36,445.70 L 856.22 456.90 L 854.15 463.73 C849.74,478.24 830.44,504.95 809.35,525.70 C792.13,542.65 775.74,549.23 768.24,542.22 ZM 1193.50 546.63 C1185.65,541.80 1183.92,535.09 1186.85,520.76 C1190.36,503.54 1199.62,489.46 1224.73,463.12 C1253.92,432.51 1282.01,414.40 1302.19,413.21 C1311.28,412.67 1314.07,413.23 1315.74,415.93 C1316.83,417.69 1316.40,418.72 1312.24,424.36 C1309.63,427.89 1305.86,433.42 1303.85,436.64 C1298.86,444.66 1281.38,470.24 1272.18,483.00 C1248.41,515.96 1229.38,535.06 1210.50,544.91 C1202.09,549.30 1198.45,549.67 1193.50,546.63 ZM 325.75 116.44 C325.34,116.01 325.00,102.47 325.00,86.33 L 325.00 57.00 L 333.53 57.00 C338.44,57.00 343.44,57.57 345.30,58.35 C349.71,60.19 354.66,66.08 356.14,71.24 C357.66,76.57 357.68,93.15 356.16,98.56 C354.39,104.88 349.28,111.82 344.63,114.20 C340.39,116.37 327.21,117.94 325.75,116.44 ZM 941.02 107.03 C940.34,105.77 940.06,96.54 940.23,81.28 L 940.50 57.50 L 946.13 56.65 C954.47,55.40 962.21,57.27 966.52,61.59 C976.12,71.18 974.37,95.28 963.47,103.59 C956.64,108.80 943.08,110.88 941.02,107.03 ZM 1172.76 120.43 C1172.15,119.82 1186.76,76.08 1188.07,74.62 C1188.50,74.14 1189.33,75.49 1189.90,77.62 C1190.48,79.76 1193.64,90.02 1196.92,100.43 C1200.21,110.84 1202.67,119.73 1202.39,120.18 C1201.82,121.09 1173.66,121.33 1172.76,120.43 Z" fill="rgb(253,253,253)"/>
</g>
</svg>